<svg xmlns="http://www.w3.org/2000/svg" version="1.1" xmlns:xlink="http://www.w3.org/1999/xlink" xmlns:svgjs="http://svgjs.dev/svgjs" width="1440" height="560" preserveAspectRatio="none" viewBox="0 0 1440 560"><g mask="url(&quot;#SvgjsMask1032&quot;)" fill="none"><rect width="1440" height="560" x="0" y="0" fill="rgba(255, 255, 255, 1)"></rect><path d="M556.209,757.373C605.428,759.394,641.238,714.909,663.761,671.099C684.135,631.469,686.716,585.107,664.683,546.376C642.403,507.212,601.267,481.881,556.209,482.038C511.411,482.194,469.572,507.314,449.035,547.127C429.945,584.136,444.03,625.751,462.942,662.851C484.487,705.117,508.808,755.426,556.209,757.373" fill="rgba(67, 16, 16, 0.4)" class="triangle-float3"></path><path d="M966.67,500.825C1019.616,499.622,1073.215,485.615,1102.519,441.501C1135.059,392.514,1146.562,327.059,1115.103,277.371C1085.142,230.05,1022.626,224.517,966.67,226.936C915.925,229.129,867.042,247.017,838.914,289.309C807.302,336.84,790.182,399.063,819.694,447.925C848.547,495.695,910.877,502.092,966.67,500.825" fill="rgba(67, 16, 16, 0.4)" class="triangle-float3"></path><path d="M1158.2242716071707 613.0640475185265L1286.2970270884189 640.286752067226 1313.5197316371184 512.2139965859778 1185.4469761558703 484.99129203727836z" fill="rgba(67, 16, 16, 0.4)" class="triangle-float3"></path><path d="M919.104300104838 101.86278263709578L927.7859204762236 227.73956694811105 1020.2891904052792 167.66724106058348z" fill="rgba(67, 16, 16, 0.4)" class="triangle-float2"></path><path d="M112.337,443.993C145.204,444.272,176.525,430.098,194.481,402.568C214.325,372.144,224.485,332.313,205.295,301.472C186.804,271.755,147.218,267.667,112.337,270.552C82.93,272.984,58.053,289.74,42.677,314.924C26.507,341.409,17.839,373.883,32.577,401.191C47.936,429.65,79.999,443.718,112.337,443.993" fill="rgba(67, 16, 16, 0.4)" class="triangle-float1"></path></g><defs><mask id="SvgjsMask1032"><rect width="1440" height="560" fill="#ffffff"></rect></mask><style>
                @keyframes float1 {
                    0%{transform: translate(0, 0)}
                    50%{transform: translate(-10px, 0)}
                    100%{transform: translate(0, 0)}
                }

                .triangle-float1 {
                    animation: float1 5s infinite;
                }

                @keyframes float2 {
                    0%{transform: translate(0, 0)}
                    50%{transform: translate(-5px, -5px)}
                    100%{transform: translate(0, 0)}
                }

                .triangle-float2 {
                    animation: float2 4s infinite;
                }

                @keyframes float3 {
                    0%{transform: translate(0, 0)}
                    50%{transform: translate(0, -10px)}
                    100%{transform: translate(0, 0)}
                }

                .triangle-float3 {
                    animation: float3 6s infinite;
                }
            </style></defs></svg>