<svg xmlns="http://www.w3.org/2000/svg" version="1.1" xmlns:xlink="http://www.w3.org/1999/xlink" xmlns:svgjs="http://svgjs.dev/svgjs" width="1440" height="560" preserveAspectRatio="none" viewBox="0 0 1440 560"><g mask="url(&quot;#SvgjsMask1225&quot;)" fill="none"><rect width="1440" height="560" x="0" y="0" fill="rgba(255, 255, 255, 1)"></rect><path d="M0 46.67C6.73 19.75 10 8.33 35 0C80 -15 87.5 0 140 0C210 0 210 0 280 0C350 0 350 0 420 0C490 0 490 0 560 0C626.18 0 629.15 -5.42 692.36 0C699.15 0.58 696.49 12 700 12C703.31 12 699.63 0.55 706 0C769.63 -5.45 773 0 840 0C910 0 910 0 980 0C1038 0 1039.73 -6.03 1096 0C1109.73 1.47 1107.37 15 1120 15C1137.63 15 1137.19 2.07 1156.52 0C1207.19 -5.43 1208.26 0 1260 0C1330 0 1330 0 1400 0C1470 0 1505 -35 1540 0C1575 35 1540 70 1540 140C1540 210 1540 210 1540 280C1540 350 1540 350 1540 420C1540 490 1575 525 1540 560C1505 595 1470 560 1400 560C1330 560 1330 560 1260 560C1194.66 560 1191.03 566.56 1129.33 560C1121.03 559.12 1125.91 545.11 1120 545.11C1112.03 545.11 1112.99 558.79 1101.58 560C1042.99 566.23 1040.79 560 980 560C910 560 910 560 840 560C770 560 770 560 700 560C630 560 630 560 560 560C497.5 560 457.74 592.69 435 560C409.04 522.69 468.03 483.01 462.61 420C460.53 395.82 445.63 389.13 420 385.61C354.32 376.59 349.61 386.9 280 394.93C209.61 403.05 209.73 405.71 140 417.91C138.07 418.25 136.67 418.47 136.67 420C136.67 423.02 136.36 425.88 140 427C208.02 447.98 217.39 431.4 280 464.21C344.27 497.9 393.75 532.86 393.75 560C393.75 580.76 336.88 560 280 560C210 560 210 560 140 560C70 560 35 595 0 560C-35 525 0 490 0 420C0 350 0 350 0 280C0 210 0 210 0 140C0 93.34 -10.77 89.75 0 46.67" stroke="rgba(255, 0, 0, 0.58)" stroke-width="2"></path><path d="M840 242.56C815.94 242.56 798.18 257.99 798.18 280C798.18 312.49 812.45 351.56 840 351.56C878.08 351.56 929.44 309.52 929.44 280C929.44 255.02 881.57 242.56 840 242.56" stroke="rgba(255, 0, 0, 0.58)" stroke-width="2"></path><path d="M1260 302.11C1242.89 302.11 1221.38 367.68 1221.38 420C1221.38 439.65 1241.58 446.05 1260 446.05C1275.44 446.05 1289.09 437.51 1289.09 420C1289.09 365.54 1276.75 302.11 1260 302.11" stroke="rgba(255, 0, 0, 0.58)" stroke-width="2"></path><path d="M39.67 140C69.57 76.83 88.54 84.91 140 32.5C157.27 14.91 154.44 5.27 177.14 0C224.44 -10.98 228.57 0 280 0C350 0 350 0 420 0C490 0 490 0 560 0C594.37 0 604.85 -19.1 628.73 0C674.85 36.9 667.25 112 700 112C730.89 112 714.1 33.52 756 0C784.1 -22.48 798 0 840 0C910 0 910 0 980 0C988 0 989.1 -3.82 996 0C1059.1 34.93 1060.39 35.45 1120 77.5C1159.63 105.45 1181.19 98.56 1194.47 140C1213.63 199.81 1193.19 210.42 1184.88 280C1176.47 350.42 1183.27 354.66 1161.03 420C1150.83 449.98 1142.86 470.64 1120 470.64C1092.6 470.64 1075.7 453.76 1060.5 420C1032.79 358.44 1061.36 341.43 1034.19 280C1021.11 250.43 1011.23 250.57 980 238C914.14 211.5 902.78 190.26 840 201.86C789.14 211.26 754.95 233.84 752.73 280C749.7 342.91 789.5 351.24 829.5 420C833.13 426.24 834.04 425.89 840 430C909.29 477.82 913.62 472.95 980 523.87C998.36 537.95 1009.47 548.93 1009.47 560C1009.47 567 994.74 560 980 560C910 560 910 560 840 560C770 560 770 560 700 560C630 560 630 560 560 560C528.75 560 500.69 580.99 497.5 560C490.04 510.99 557.65 477.65 538.7 420C518.9 359.75 487.17 344.28 420 324.21C357.82 305.63 349.84 332.35 280 342.69C209.84 353.08 205.85 343.21 140 365.67C92.52 381.86 59.62 380.7 53.33 420C44.07 477.87 124.37 519.37 108.89 560C97.7 589.37 23.82 590.63 0 560C-30.63 520.63 0 490 0 420C0 373.34 -7.34 371.63 0 326.67C4.09 301.63 17.52 305.14 22.86 280C37.35 211.8 11 200.58 39.67 140" stroke="rgba(255, 0, 0, 0.58)" stroke-width="2"></path><path d="M280 85.42C249.7 85.42 231.21 112.07 231.21 140C231.21 169.73 248.84 200.75 280 200.75C335.16 200.75 403.85 169.11 403.85 140C403.85 111.44 336.02 85.42 280 85.42" stroke="rgba(255, 0, 0, 0.58)" stroke-width="2"></path><path d="M1415.56 140C1474.98 85.44 1502.11 35.81 1540 35.81C1564.33 35.81 1540 87.91 1540 140C1540 210 1540 210 1540 280C1540 297.5 1541.34 297.57 1540 315C1535.96 367.57 1536.45 367.75 1529.23 420C1519.52 490.25 1543.1 519.95 1506.13 560C1478.48 589.95 1453.07 560 1400 560C1330 560 1330 560 1260 560C1218 560 1176 575.74 1176 560C1176 539.11 1218.23 523.63 1260 486.74C1297.5 453.63 1318.89 463.09 1334.55 420C1356.45 359.72 1318.31 345.65 1335.12 280C1351.04 217.82 1366.98 221.83 1400 164.35C1407.2 151.83 1404.98 149.71 1415.56 140" stroke="rgba(255, 0, 0, 0.58)" stroke-width="2"></path><path d="M260 560C260 559.07 270.49 556.32 280 556.32C282.68 556.32 284.38 558.96 284.38 560C284.38 560.8 282.19 560 280 560C270 560 260 560.91 260 560" stroke="rgba(255, 0, 0, 0.58)" stroke-width="2"></path><path d="M98 140C104.98 111.76 119.53 95 140 95C159.62 95 159.54 117.13 178.18 140C229.54 203.02 221.46 215.61 280 266.79C301.53 285.61 338.33 274.06 338.33 280C338.33 285.89 309.22 285.53 280 290.45C210.05 302.24 206.36 317.16 140 313.43C113.51 311.94 100.34 304.97 94.29 280C79.34 218.25 82.12 204.26 98 140" stroke="rgba(255, 0, 0, 0.58)" stroke-width="2"></path><path d="M280 26.1C263.09 26.1 248.57 7.38 248.57 0C248.57 -5.67 264.28 0 280 0C303.34 0 326.67 -6.08 326.67 0C326.67 6.97 302.14 26.1 280 26.1" stroke="rgba(255, 0, 0, 0.58)" stroke-width="2"></path><path d="M488.44 140C485.22 73.56 515.1 65.02 548.33 0C550.88 -4.98 554.16 0 560 0C562.55 0 563.87 -2.18 565.09 0C603.14 67.82 639.95 73.43 638.54 140C637.4 193.75 598.15 240.63 560 240.63C523.1 240.63 491.05 193.88 488.44 140" stroke="rgba(255, 0, 0, 0.58)" stroke-width="2"></path><path d="M781.29 140C769.48 84 782.31 56.49 806 0C811.67 -13.51 823 0 840 0C871.32 0 881.5 -18.49 902.63 0C951.5 42.76 924.94 87.04 980 122.5C1033.62 157.04 1120 132.98 1120 140C1120 146.98 1050 145.21 980 150.5C910 155.79 908.78 164.79 840 161.16C809.43 159.54 786.48 164.58 781.29 140" stroke="rgba(255, 0, 0, 0.58)" stroke-width="2"></path><path d="M1512.78 140C1512.78 127.49 1531.71 117.21 1540 117.21C1545.32 117.21 1540 128.61 1540 140C1540 155.81 1545.87 171.61 1540 171.61C1532.26 171.61 1512.78 154.69 1512.78 140" stroke="rgba(255, 0, 0, 0.58)" stroke-width="2"></path><path d="M656.92 280C664.27 258.29 683.53 254.55 700 254.55C708.71 254.55 704.01 267.17 707.27 280C725.01 349.9 743.93 350.9 742 420C740.3 480.9 724 540 700 540C675 540 654.45 483.05 644 420C632.91 353.05 636.27 341.01 656.92 280" stroke="rgba(255, 0, 0, 0.58)" stroke-width="2"></path><path d="M1380 420C1405.58 383.81 1385.6 329.41 1400 329.41C1415.34 329.41 1429.23 372.37 1439.49 420C1454.07 487.66 1464.26 508.3 1449.68 560C1444.52 578.3 1424.84 560 1400 560C1330 560 1330 560 1260 560C1241.34 560 1222.67 567 1222.67 560C1222.67 550.72 1241.5 543.9 1260 527.44C1320.16 473.9 1335.58 482.83 1380 420" stroke="rgba(255, 0, 0, 0.58)" stroke-width="2"></path><path d="M717.5 560C717.5 547.94 781.94 513.33 840 513.33C874.81 513.33 903.23 547.07 903.23 560C903.23 570.4 871.62 560 840 560C778.75 560 717.5 571.27 717.5 560" stroke="rgba(255, 0, 0, 0.58)" stroke-width="2"></path></g><defs><mask id="SvgjsMask1225"><rect width="1440" height="560" fill="#ffffff"></rect></mask></defs></svg>