<svg xmlns="http://www.w3.org/2000/svg" version="1.1" xmlns:xlink="http://www.w3.org/1999/xlink" xmlns:svgjs="http://svgjs.dev/svgjs" width="1440" height="560" preserveAspectRatio="none" viewBox="0 0 1440 560"><g mask="url(&quot;#SvgjsMask1004&quot;)" fill="none"><rect width="1440" height="560" x="0" y="0" fill="rgba(24, 24, 24, 1)"></rect><path d="M504.99 575.37C631.36 528.67 579.86 151.03 834.79 149.17 1089.73 147.31 1323.53 326.78 1494.4 328.37" stroke="rgba(255, 0, 0, 0.58)" stroke-width="2"></path><path d="M542.64 609.36C702.94 591.44 773.98 254.15 1070.57 238.43 1367.15 222.71 1459.57 67.04 1598.49 64.83" stroke="rgba(255, 0, 0, 0.58)" stroke-width="2"></path><path d="M261.25 606.02C368.11 604.97 466.95 492.03 673.23 492.01 879.51 491.99 879.22 562.01 1085.21 562.01 1291.2 562.01 1392.72 492.26 1497.19 492.01" stroke="rgba(255, 0, 0, 0.58)" stroke-width="2"></path><path d="M353.73 623.06C540.2 599.78 652.24 177.34 958.51 176.72 1264.79 176.1 1399.58 423.75 1563.3 428.72" stroke="rgba(255, 0, 0, 0.58)" stroke-width="2"></path><path d="M528.57 602.13C684.77 594.94 789.77 335.14 1090.69 327.83 1391.62 320.52 1506.93 172.49 1652.82 171.03" stroke="rgba(255, 0, 0, 0.58)" stroke-width="2"></path></g><defs><mask id="SvgjsMask1004"><rect width="1440" height="560" fill="#ffffff"></rect></mask></defs></svg>