<svg width="188" height="98" viewBox="0 0 188 98" fill="none" xmlns="http://www.w3.org/2000/svg">
<path d="M30.9766 72.5V25.543L67.1795 72.5V29.5" stroke="#FF0000" stroke-width="6" stroke-miterlimit="16"/>
<rect x="25.5" y="71.5" width="12" height="12" stroke="#FF0000" stroke-width="3" stroke-miterlimit="16"/>
<rect x="60.5" y="17.5" width="12" height="12" stroke="#FF0000" stroke-width="3" stroke-miterlimit="16"/>
<path d="M101.116 33.5455V51H97.929L90.3352 40.0142H90.2074V51H86.517V33.5455H89.7557L97.2898 44.5227H97.4432V33.5455H101.116ZM110.063 51.2557C108.717 51.2557 107.558 50.983 106.586 50.4375C105.62 49.8864 104.876 49.108 104.353 48.1023C103.83 47.0909 103.569 45.8949 103.569 44.5142C103.569 43.1676 103.83 41.9858 104.353 40.9688C104.876 39.9517 105.612 39.1591 106.56 38.5909C107.515 38.0227 108.634 37.7386 109.918 37.7386C110.782 37.7386 111.586 37.8778 112.33 38.1562C113.08 38.429 113.734 38.8409 114.29 39.392C114.853 39.9432 115.29 40.6364 115.603 41.4716C115.915 42.3011 116.072 43.2727 116.072 44.3864V45.3835H105.018V43.1335H112.654C112.654 42.6108 112.54 42.1477 112.313 41.7443C112.086 41.3409 111.771 41.0256 111.367 40.7983C110.969 40.5653 110.506 40.4489 109.978 40.4489C109.427 40.4489 108.938 40.5767 108.512 40.8324C108.092 41.0824 107.762 41.4205 107.523 41.8466C107.285 42.267 107.163 42.7358 107.157 43.2528V45.392C107.157 46.0398 107.276 46.5994 107.515 47.071C107.759 47.5426 108.103 47.9062 108.546 48.1619C108.989 48.4176 109.515 48.5455 110.123 48.5455C110.526 48.5455 110.896 48.4886 111.231 48.375C111.566 48.2614 111.853 48.0909 112.092 47.8636C112.33 47.6364 112.512 47.358 112.637 47.0284L115.995 47.25C115.825 48.0568 115.475 48.7614 114.947 49.3636C114.424 49.9602 113.748 50.4261 112.918 50.7614C112.094 51.0909 111.143 51.2557 110.063 51.2557ZM125.404 37.9091V40.6364H117.521V37.9091H125.404ZM119.31 34.7727H122.941V46.9773C122.941 47.3125 122.992 47.5739 123.094 47.7614C123.197 47.9432 123.339 48.071 123.521 48.1449C123.708 48.2187 123.924 48.2557 124.168 48.2557C124.339 48.2557 124.509 48.2415 124.68 48.2131C124.85 48.179 124.981 48.1534 125.072 48.1364L125.643 50.8381C125.461 50.8949 125.205 50.9602 124.876 51.0341C124.546 51.1136 124.146 51.1619 123.674 51.179C122.799 51.2131 122.032 51.0966 121.373 50.8295C120.719 50.5625 120.211 50.1477 119.847 49.5852C119.484 49.0227 119.305 48.3125 119.31 47.4545V34.7727ZM128.119 51V33.5455H135.005C136.329 33.5455 137.457 33.7983 138.388 34.304C139.32 34.804 140.031 35.5 140.519 36.392C141.013 37.2784 141.261 38.3011 141.261 39.4602C141.261 40.6193 141.011 41.642 140.511 42.5284C140.011 43.4148 139.286 44.1051 138.337 44.5994C137.394 45.0937 136.252 45.3409 134.911 45.3409H130.522V42.3835H134.315C135.025 42.3835 135.61 42.2614 136.07 42.017C136.536 41.767 136.883 41.4233 137.11 40.9858C137.343 40.5426 137.46 40.0341 137.46 39.4602C137.46 38.8807 137.343 38.375 137.11 37.9432C136.883 37.5057 136.536 37.1676 136.07 36.929C135.604 36.6847 135.013 36.5625 134.298 36.5625H131.809V51H128.119ZM143.589 51V37.9091H147.109V40.1932H147.246C147.484 39.3807 147.885 38.767 148.447 38.3523C149.01 37.9318 149.658 37.7216 150.391 37.7216C150.572 37.7216 150.768 37.733 150.979 37.7557C151.189 37.7784 151.374 37.8097 151.533 37.8494V41.071C151.362 41.0199 151.126 40.9744 150.825 40.9347C150.524 40.8949 150.249 40.875 149.999 40.875C149.464 40.875 148.987 40.9915 148.567 41.2244C148.152 41.4517 147.822 41.7699 147.578 42.179C147.339 42.5881 147.22 43.0597 147.22 43.5938V51H143.589ZM153.41 51V37.9091H157.04V51H153.41ZM155.234 36.2216C154.694 36.2216 154.231 36.0426 153.844 35.6847C153.464 35.321 153.273 34.8864 153.273 34.3807C153.273 33.8807 153.464 33.4517 153.844 33.0938C154.231 32.7301 154.694 32.5483 155.234 32.5483C155.773 32.5483 156.234 32.7301 156.614 33.0938C157.001 33.4517 157.194 33.8807 157.194 34.3807C157.194 34.8864 157.001 35.321 156.614 35.6847C156.234 36.0426 155.773 36.2216 155.234 36.2216ZM163.58 43.4318V51H159.949V37.9091H163.409V40.2188H163.562C163.852 39.4574 164.338 38.8551 165.02 38.4119C165.702 37.9631 166.528 37.7386 167.5 37.7386C168.409 37.7386 169.202 37.9375 169.878 38.3352C170.554 38.733 171.08 39.3011 171.455 40.0398C171.83 40.7727 172.017 41.6477 172.017 42.6648V51H168.386V43.3125C168.392 42.5114 168.188 41.8864 167.773 41.4375C167.358 40.983 166.787 40.7557 166.06 40.7557C165.571 40.7557 165.139 40.8608 164.764 41.071C164.395 41.2812 164.105 41.5881 163.895 41.9915C163.69 42.3892 163.585 42.8693 163.58 43.4318ZM181.842 37.9091V40.6364H173.958V37.9091H181.842ZM175.748 34.7727H179.379V46.9773C179.379 47.3125 179.43 47.5739 179.532 47.7614C179.634 47.9432 179.776 48.071 179.958 48.1449C180.146 48.2187 180.362 48.2557 180.606 48.2557C180.776 48.2557 180.947 48.2415 181.117 48.2131C181.288 48.179 181.418 48.1534 181.509 48.1364L182.08 50.8381C181.898 50.8949 181.643 50.9602 181.313 51.0341C180.984 51.1136 180.583 51.1619 180.112 51.179C179.237 51.2131 178.469 51.0966 177.81 50.8295C177.157 50.5625 176.648 50.1477 176.285 49.5852C175.921 49.0227 175.742 48.3125 175.748 47.4545V34.7727Z" fill="white"/>
<path d="M95.9858 60.5653C95.9176 59.8778 95.625 59.3437 95.108 58.9631C94.5909 58.5824 93.8892 58.392 93.0028 58.392C92.4006 58.392 91.892 58.4773 91.4773 58.6477C91.0625 58.8125 90.7443 59.0426 90.5227 59.3381C90.3068 59.6335 90.1989 59.9688 90.1989 60.3438C90.1875 60.6562 90.2528 60.929 90.3949 61.1619C90.5426 61.3949 90.7443 61.5966 91 61.767C91.2557 61.9318 91.5511 62.0767 91.8864 62.2017C92.2216 62.321 92.5795 62.4233 92.9602 62.5085L94.5284 62.8835C95.2898 63.054 95.9886 63.2812 96.625 63.5653C97.2614 63.8494 97.8125 64.1989 98.2784 64.6136C98.7443 65.0284 99.1051 65.517 99.3608 66.0795C99.6222 66.642 99.7557 67.2869 99.7614 68.0142C99.7557 69.0824 99.483 70.0085 98.9432 70.7926C98.4091 71.571 97.6364 72.1761 96.625 72.608C95.6193 73.0341 94.4063 73.2472 92.9858 73.2472C91.5767 73.2472 90.3494 73.0312 89.304 72.5994C88.2642 72.1676 87.4517 71.5284 86.8665 70.6818C86.2869 69.8295 85.983 68.7756 85.9545 67.5199H89.5256C89.5653 68.1051 89.733 68.5937 90.0284 68.9858C90.3295 69.3722 90.7301 69.6648 91.2301 69.8636C91.7358 70.0568 92.3068 70.1534 92.9432 70.1534C93.5682 70.1534 94.1108 70.0625 94.571 69.8807C95.0369 69.6989 95.3977 69.446 95.6534 69.1222C95.9091 68.7983 96.0369 68.4261 96.0369 68.0057C96.0369 67.6136 95.9205 67.2841 95.6875 67.017C95.4602 66.75 95.125 66.5227 94.6818 66.3352C94.2443 66.1477 93.7074 65.9773 93.071 65.8239L91.1705 65.3466C89.6989 64.9886 88.5369 64.429 87.6847 63.6676C86.8324 62.9062 86.4091 61.8807 86.4148 60.5909C86.4091 59.5341 86.6903 58.6108 87.2585 57.821C87.8324 57.0312 88.6193 56.4148 89.6193 55.9716C90.6193 55.5284 91.7557 55.3068 93.0284 55.3068C94.3239 55.3068 95.4545 55.5284 96.4205 55.9716C97.392 56.4148 98.1477 57.0312 98.6875 57.821C99.2273 58.6108 99.5057 59.5256 99.5227 60.5653H95.9858ZM109.138 59.9091V62.6364H101.255V59.9091H109.138ZM103.045 56.7727H106.675V68.9773C106.675 69.3125 106.727 69.5739 106.829 69.7614C106.931 69.9432 107.073 70.071 107.255 70.1449C107.442 70.2187 107.658 70.2557 107.903 70.2557C108.073 70.2557 108.244 70.2415 108.414 70.2131C108.585 70.179 108.715 70.1534 108.806 70.1364L109.377 72.8381C109.195 72.8949 108.94 72.9602 108.61 73.0341C108.281 73.1136 107.88 73.1619 107.408 73.179C106.533 73.2131 105.766 73.0966 105.107 72.8295C104.454 72.5625 103.945 72.1477 103.582 71.5852C103.218 71.0227 103.039 70.3125 103.045 69.4545V56.7727ZM119.898 67.4261V59.9091H123.529V73H120.043V70.6222H119.907C119.612 71.3892 119.12 72.0057 118.433 72.4716C117.751 72.9375 116.918 73.1705 115.935 73.1705C115.06 73.1705 114.29 72.9716 113.626 72.5739C112.961 72.1761 112.441 71.6108 112.066 70.8778C111.697 70.1449 111.509 69.267 111.504 68.2443V59.9091H115.134V67.5966C115.14 68.3693 115.347 68.9801 115.756 69.429C116.165 69.8778 116.714 70.1023 117.401 70.1023C117.839 70.1023 118.248 70.0028 118.629 69.804C119.009 69.5994 119.316 69.2983 119.549 68.9006C119.788 68.5028 119.904 68.0114 119.898 67.4261ZM131.257 73.2131C130.263 73.2131 129.362 72.9574 128.555 72.446C127.754 71.929 127.118 71.1705 126.646 70.1705C126.18 69.1648 125.947 67.9318 125.947 66.4716C125.947 64.9716 126.189 63.7244 126.672 62.7301C127.155 61.7301 127.797 60.983 128.598 60.4886C129.405 59.9886 130.288 59.7386 131.249 59.7386C131.982 59.7386 132.592 59.8636 133.081 60.1136C133.575 60.358 133.973 60.6648 134.274 61.0341C134.581 61.3977 134.814 61.7557 134.973 62.108H135.084V55.5455H138.706V73H135.126V70.9034H134.973C134.803 71.267 134.561 71.6278 134.249 71.9858C133.942 72.3381 133.541 72.6307 133.047 72.8636C132.558 73.0966 131.962 73.2131 131.257 73.2131ZM132.408 70.3239C132.993 70.3239 133.487 70.1648 133.891 69.8466C134.3 69.5227 134.612 69.071 134.828 68.4915C135.05 67.9119 135.161 67.233 135.161 66.4545C135.161 65.6761 135.053 65 134.837 64.4261C134.621 63.8523 134.308 63.4091 133.899 63.0966C133.49 62.7841 132.993 62.6278 132.408 62.6278C131.811 62.6278 131.308 62.7898 130.899 63.1136C130.49 63.4375 130.18 63.8864 129.97 64.4602C129.76 65.0341 129.655 65.6989 129.655 66.4545C129.655 67.2159 129.76 67.8892 129.97 68.4744C130.186 69.054 130.496 69.5085 130.899 69.8381C131.308 70.1619 131.811 70.3239 132.408 70.3239ZM141.691 73V59.9091H145.322V73H141.691ZM143.515 58.2216C142.975 58.2216 142.512 58.0426 142.126 57.6847C141.745 57.321 141.555 56.8864 141.555 56.3807C141.555 55.8807 141.745 55.4517 142.126 55.0938C142.512 54.7301 142.975 54.5483 143.515 54.5483C144.055 54.5483 144.515 54.7301 144.896 55.0938C145.282 55.4517 145.475 55.8807 145.475 56.3807C145.475 56.8864 145.282 57.321 144.896 57.6847C144.515 58.0426 144.055 58.2216 143.515 58.2216ZM154.145 73.2557C152.821 73.2557 151.676 72.9744 150.71 72.4119C149.75 71.8437 149.009 71.054 148.486 70.0426C147.963 69.0256 147.702 67.8466 147.702 66.5057C147.702 65.1534 147.963 63.9716 148.486 62.9602C149.009 61.9432 149.75 61.1534 150.71 60.5909C151.676 60.0227 152.821 59.7386 154.145 59.7386C155.469 59.7386 156.611 60.0227 157.571 60.5909C158.537 61.1534 159.281 61.9432 159.804 62.9602C160.327 63.9716 160.588 65.1534 160.588 66.5057C160.588 67.8466 160.327 69.0256 159.804 70.0426C159.281 71.054 158.537 71.8437 157.571 72.4119C156.611 72.9744 155.469 73.2557 154.145 73.2557ZM154.162 70.4432C154.764 70.4432 155.267 70.2727 155.67 69.9318C156.074 69.5852 156.378 69.1136 156.582 68.517C156.793 67.9205 156.898 67.2415 156.898 66.4801C156.898 65.7188 156.793 65.0398 156.582 64.4432C156.378 63.8466 156.074 63.375 155.67 63.0284C155.267 62.6818 154.764 62.5085 154.162 62.5085C153.554 62.5085 153.043 62.6818 152.628 63.0284C152.219 63.375 151.909 63.8466 151.699 64.4432C151.494 65.0398 151.392 65.7188 151.392 66.4801C151.392 67.2415 151.494 67.9205 151.699 68.517C151.909 69.1136 152.219 69.5852 152.628 69.9318C153.043 70.2727 153.554 70.4432 154.162 70.4432Z" fill="white"/>
</svg>
