<svg xmlns="http://www.w3.org/2000/svg" version="1.1" xmlns:xlink="http://www.w3.org/1999/xlink" xmlns:svgjs="http://svgjs.dev/svgjs" width="1440" height="560" preserveAspectRatio="none" viewBox="0 0 1440 560"><g mask="url(&quot;#SvgjsMask1018&quot;)" fill="none"><rect width="1440" height="560" x="0" y="0" fill="rgba(255, 255, 255, 1)"></rect><path d="M289.75 568.72C421.24 562.66 522.93 338.3 762.91 337.73 1002.88 337.16 999.49 407.73 1236.06 407.73 1472.64 407.73 1589.64 337.92 1709.22 337.73" stroke="rgba(10, 0, 255, 0.58)" stroke-width="2"></path><path d="M414.34 590.65C532.96 580.76 611.72 340.98 819.06 339.88 1026.41 338.78 1021.42 409.88 1223.79 409.88 1426.15 409.88 1525.83 340.14 1628.51 339.88" stroke="rgba(10, 0, 255, 0.58)" stroke-width="2"></path><path d="M528.61 639.17C694.28 625.76 789.42 301.03 1095.71 292.14 1402 283.25 1518.02 175.16 1662.81 174.54" stroke="rgba(10, 0, 255, 0.58)" stroke-width="2"></path><path d="M417.11 571.75C555.58 509.72 486.26 77.15 760.39 71.27 1034.53 65.39 1272.58 193.98 1446.96 194.47" stroke="rgba(10, 0, 255, 0.58)" stroke-width="2"></path><path d="M836.28 651.65C910.4 650.77 889.38 574.6 1120.58 567.4 1351.78 560.2 1531.5 300.05 1689.18 293" stroke="rgba(10, 0, 255, 0.58)" stroke-width="2"></path></g><defs><mask id="SvgjsMask1018"><rect width="1440" height="560" fill="#ffffff"></rect></mask></defs></svg>