<svg xmlns="http://www.w3.org/2000/svg" version="1.1" xmlns:xlink="http://www.w3.org/1999/xlink" xmlns:svgjs="http://svgjs.dev/svgjs" width="1440" height="560" preserveAspectRatio="none" viewBox="0 0 1440 560"><g mask="url(&quot;#SvgjsMask1020&quot;)" fill="none"><rect width="1440" height="560" x="0" y="0" fill="rgba(233, 244, 255, 1)"></rect><path d="M-58.95 344.08L-58.95 344.08" stroke="rgba(0, 0, 0, 1)" stroke-width="1.5"></path><path d="M-58.95 344.08L68.81 374.59" stroke="rgba(0, 0, 0, 1)" stroke-width="1.5"></path><path d="M-58.95 344.08L41.1 560.26" stroke="rgba(0, 0, 0, 1)" stroke-width="1.5"></path><path d="M-58.95 344.08L252.55 352.55" stroke="rgba(0, 0, 0, 1)" stroke-width="1.5"></path><path d="M-99.78 699.63L-99.78 699.63" stroke="rgba(0, 0, 0, 1)" stroke-width="1.5"></path><path d="M-99.78 699.63L84.09 709.54" stroke="rgba(0, 0, 0, 1)" stroke-width="1.5"></path><path d="M-99.78 699.63L41.1 560.26" stroke="rgba(0, 0, 0, 1)" stroke-width="1.5"></path><path d="M-99.78 699.63L-58.95 344.08" stroke="rgba(0, 0, 0, 1)" stroke-width="1.5"></path><path d="M-99.78 699.63L257.15 643.11" stroke="rgba(0, 0, 0, 1)" stroke-width="1.5"></path><path d="M-99.78 699.63L68.81 374.59" stroke="rgba(0, 0, 0, 1)" stroke-width="1.5"></path><path d="M68.81 374.59L68.81 374.59" stroke="rgba(0, 0, 0, 1)" stroke-width="1.5"></path><path d="M68.81 374.59L252.55 352.55" stroke="rgba(0, 0, 0, 1)" stroke-width="1.5"></path><path d="M68.81 374.59L41.1 560.26" stroke="rgba(0, 0, 0, 1)" stroke-width="1.5"></path><path d="M68.81 374.59L226.55 529.51" stroke="rgba(0, 0, 0, 1)" stroke-width="1.5"></path><path d="M68.81 374.59L337.83 545.77" stroke="rgba(0, 0, 0, 1)" stroke-width="1.5"></path><path d="M41.1 560.26L41.1 560.26" stroke="rgba(0, 0, 0, 1)" stroke-width="1.5"></path><path d="M41.1 560.26L84.09 709.54" stroke="rgba(0, 0, 0, 1)" stroke-width="1.5"></path><path d="M41.1 560.26L226.55 529.51" stroke="rgba(0, 0, 0, 1)" stroke-width="1.5"></path><path d="M84.09 709.54L84.09 709.54" stroke="rgba(0, 0, 0, 1)" stroke-width="1.5"></path><path d="M84.09 709.54L257.15 643.11" stroke="rgba(0, 0, 0, 1)" stroke-width="1.5"></path><path d="M252.55 352.55L252.55 352.55" stroke="rgba(0, 0, 0, 1)" stroke-width="1.5"></path><path d="M252.55 352.55L394.66 342.81" stroke="rgba(0, 0, 0, 1)" stroke-width="1.5"></path><path d="M252.55 352.55L226.55 529.51" stroke="rgba(0, 0, 0, 1)" stroke-width="1.5"></path><path d="M226.55 529.51L226.55 529.51" stroke="rgba(0, 0, 0, 1)" stroke-width="1.5"></path><path d="M226.55 529.51L337.83 545.77" stroke="rgba(0, 0, 0, 1)" stroke-width="1.5"></path><path d="M226.55 529.51L257.15 643.11" stroke="rgba(0, 0, 0, 1)" stroke-width="1.5"></path><path d="M257.15 643.11L257.15 643.11" stroke="rgba(0, 0, 0, 1)" stroke-width="1.5"></path><path d="M257.15 643.11L337.83 545.77" stroke="rgba(0, 0, 0, 1)" stroke-width="1.5"></path><path d="M257.15 643.11L390.19 664.59" stroke="rgba(0, 0, 0, 1)" stroke-width="1.5"></path><path d="M394.66 342.81L394.66 342.81" stroke="rgba(0, 0, 0, 1)" stroke-width="1.5"></path><path d="M394.66 342.81L537.49 410.97" stroke="rgba(0, 0, 0, 1)" stroke-width="1.5"></path><path d="M394.66 342.81L337.83 545.77" stroke="rgba(0, 0, 0, 1)" stroke-width="1.5"></path><path d="M394.66 342.81L560.47 509.39" stroke="rgba(0, 0, 0, 1)" stroke-width="1.5"></path><path d="M394.66 342.81L226.55 529.51" stroke="rgba(0, 0, 0, 1)" stroke-width="1.5"></path><path d="M337.83 545.77L337.83 545.77" stroke="rgba(0, 0, 0, 1)" stroke-width="1.5"></path><path d="M337.83 545.77L390.19 664.59" stroke="rgba(0, 0, 0, 1)" stroke-width="1.5"></path><path d="M337.83 545.77L252.55 352.55" stroke="rgba(0, 0, 0, 1)" stroke-width="1.5"></path><path d="M337.83 545.77L515.5 664.98" stroke="rgba(0, 0, 0, 1)" stroke-width="1.5"></path><path d="M390.19 664.59L390.19 664.59" stroke="rgba(0, 0, 0, 1)" stroke-width="1.5"></path><path d="M390.19 664.59L515.5 664.98" stroke="rgba(0, 0, 0, 1)" stroke-width="1.5"></path><path d="M537.49 410.97L537.49 410.97" stroke="rgba(0, 0, 0, 1)" stroke-width="1.5"></path><path d="M537.49 410.97L560.47 509.39" stroke="rgba(0, 0, 0, 1)" stroke-width="1.5"></path><path d="M537.49 410.97L689.24 369.79" stroke="rgba(0, 0, 0, 1)" stroke-width="1.5"></path><path d="M537.49 410.97L337.83 545.77" stroke="rgba(0, 0, 0, 1)" stroke-width="1.5"></path><path d="M560.47 509.39L560.47 509.39" stroke="rgba(0, 0, 0, 1)" stroke-width="1.5"></path><path d="M515.5 664.98L515.5 664.98" stroke="rgba(0, 0, 0, 1)" stroke-width="1.5"></path><path d="M515.5 664.98L560.47 509.39" stroke="rgba(0, 0, 0, 1)" stroke-width="1.5"></path><path d="M515.5 664.98L537.49 410.97" stroke="rgba(0, 0, 0, 1)" stroke-width="1.5"></path><path d="M515.5 664.98L257.15 643.11" stroke="rgba(0, 0, 0, 1)" stroke-width="1.5"></path><path d="M515.5 664.98L798.09 707.46" stroke="rgba(0, 0, 0, 1)" stroke-width="1.5"></path><path d="M689.24 369.79L689.24 369.79" stroke="rgba(0, 0, 0, 1)" stroke-width="1.5"></path><path d="M689.24 369.79L795.1 384.87" stroke="rgba(0, 0, 0, 1)" stroke-width="1.5"></path><path d="M689.24 369.79L799.62 517.54" stroke="rgba(0, 0, 0, 1)" stroke-width="1.5"></path><path d="M689.24 369.79L560.47 509.39" stroke="rgba(0, 0, 0, 1)" stroke-width="1.5"></path><path d="M825.42 112.44L825.42 112.44" stroke="rgba(0, 0, 0, 1)" stroke-width="1.5"></path><path d="M825.42 112.44L848.57 232.27" stroke="rgba(0, 0, 0, 1)" stroke-width="1.5"></path><path d="M825.42 112.44L985.93 42.14" stroke="rgba(0, 0, 0, 1)" stroke-width="1.5"></path><path d="M825.42 112.44L967.91 228.27" stroke="rgba(0, 0, 0, 1)" stroke-width="1.5"></path><path d="M825.42 112.44L997.77 -81.3" stroke="rgba(0, 0, 0, 1)" stroke-width="1.5"></path><path d="M825.42 112.44L795.1 384.87" stroke="rgba(0, 0, 0, 1)" stroke-width="1.5"></path><path d="M848.57 232.27L848.57 232.27" stroke="rgba(0, 0, 0, 1)" stroke-width="1.5"></path><path d="M848.57 232.27L967.91 228.27" stroke="rgba(0, 0, 0, 1)" stroke-width="1.5"></path><path d="M848.57 232.27L795.1 384.87" stroke="rgba(0, 0, 0, 1)" stroke-width="1.5"></path><path d="M848.57 232.27L689.24 369.79" stroke="rgba(0, 0, 0, 1)" stroke-width="1.5"></path><path d="M848.57 232.27L1010.29 394.61" stroke="rgba(0, 0, 0, 1)" stroke-width="1.5"></path><path d="M848.57 232.27L985.93 42.14" stroke="rgba(0, 0, 0, 1)" stroke-width="1.5"></path><path d="M795.1 384.87L795.1 384.87" stroke="rgba(0, 0, 0, 1)" stroke-width="1.5"></path><path d="M795.1 384.87L799.62 517.54" stroke="rgba(0, 0, 0, 1)" stroke-width="1.5"></path><path d="M795.1 384.87L1010.29 394.61" stroke="rgba(0, 0, 0, 1)" stroke-width="1.5"></path><path d="M795.1 384.87L967.91 228.27" stroke="rgba(0, 0, 0, 1)" stroke-width="1.5"></path><path d="M799.62 517.54L799.62 517.54" stroke="rgba(0, 0, 0, 1)" stroke-width="1.5"></path><path d="M799.62 517.54L798.09 707.46" stroke="rgba(0, 0, 0, 1)" stroke-width="1.5"></path><path d="M799.62 517.54L560.47 509.39" stroke="rgba(0, 0, 0, 1)" stroke-width="1.5"></path><path d="M799.62 517.54L1010.29 394.61" stroke="rgba(0, 0, 0, 1)" stroke-width="1.5"></path><path d="M798.09 707.46L798.09 707.46" stroke="rgba(0, 0, 0, 1)" stroke-width="1.5"></path><path d="M798.09 707.46L983.61 710.2" stroke="rgba(0, 0, 0, 1)" stroke-width="1.5"></path><path d="M997.77 -81.3L997.77 -81.3" stroke="rgba(0, 0, 0, 1)" stroke-width="1.5"></path><path d="M997.77 -81.3L985.93 42.14" stroke="rgba(0, 0, 0, 1)" stroke-width="1.5"></path><path d="M997.77 -81.3L1141 -79.75" stroke="rgba(0, 0, 0, 1)" stroke-width="1.5"></path><path d="M997.77 -81.3L1123.05 47.49" stroke="rgba(0, 0, 0, 1)" stroke-width="1.5"></path><path d="M997.77 -81.3L1299.62 -90.21" stroke="rgba(0, 0, 0, 1)" stroke-width="1.5"></path><path d="M997.77 -81.3L1282.59 38.05" stroke="rgba(0, 0, 0, 1)" stroke-width="1.5"></path><path d="M985.93 42.14L985.93 42.14" stroke="rgba(0, 0, 0, 1)" stroke-width="1.5"></path><path d="M985.93 42.14L1123.05 47.49" stroke="rgba(0, 0, 0, 1)" stroke-width="1.5"></path><path d="M985.93 42.14L967.91 228.27" stroke="rgba(0, 0, 0, 1)" stroke-width="1.5"></path><path d="M985.93 42.14L1141 -79.75" stroke="rgba(0, 0, 0, 1)" stroke-width="1.5"></path><path d="M967.91 228.27L967.91 228.27" stroke="rgba(0, 0, 0, 1)" stroke-width="1.5"></path><path d="M967.91 228.27L1010.29 394.61" stroke="rgba(0, 0, 0, 1)" stroke-width="1.5"></path><path d="M1010.29 394.61L1010.29 394.61" stroke="rgba(0, 0, 0, 1)" stroke-width="1.5"></path><path d="M1010.29 394.61L1116.63 355.94" stroke="rgba(0, 0, 0, 1)" stroke-width="1.5"></path><path d="M1010.29 394.61L1102.65 488.36" stroke="rgba(0, 0, 0, 1)" stroke-width="1.5"></path><path d="M983.61 710.2L983.61 710.2" stroke="rgba(0, 0, 0, 1)" stroke-width="1.5"></path><path d="M983.61 710.2L1128.66 688.74" stroke="rgba(0, 0, 0, 1)" stroke-width="1.5"></path><path d="M1141 -79.75L1141 -79.75" stroke="rgba(0, 0, 0, 1)" stroke-width="1.5"></path><path d="M1141 -79.75L1123.05 47.49" stroke="rgba(0, 0, 0, 1)" stroke-width="1.5"></path><path d="M1141 -79.75L1299.62 -90.21" stroke="rgba(0, 0, 0, 1)" stroke-width="1.5"></path><path d="M1123.05 47.49L1123.05 47.49" stroke="rgba(0, 0, 0, 1)" stroke-width="1.5"></path><path d="M1123.05 47.49L1282.59 38.05" stroke="rgba(0, 0, 0, 1)" stroke-width="1.5"></path><path d="M1123.05 47.49L1148.01 247.29" stroke="rgba(0, 0, 0, 1)" stroke-width="1.5"></path><path d="M1123.05 47.49L1237.81 237.49" stroke="rgba(0, 0, 0, 1)" stroke-width="1.5"></path><path d="M1148.01 247.29L1148.01 247.29" stroke="rgba(0, 0, 0, 1)" stroke-width="1.5"></path><path d="M1148.01 247.29L1237.81 237.49" stroke="rgba(0, 0, 0, 1)" stroke-width="1.5"></path><path d="M1148.01 247.29L1116.63 355.94" stroke="rgba(0, 0, 0, 1)" stroke-width="1.5"></path><path d="M1116.63 355.94L1116.63 355.94" stroke="rgba(0, 0, 0, 1)" stroke-width="1.5"></path><path d="M1116.63 355.94L1102.65 488.36" stroke="rgba(0, 0, 0, 1)" stroke-width="1.5"></path><path d="M1116.63 355.94L1283.45 370.42" stroke="rgba(0, 0, 0, 1)" stroke-width="1.5"></path><path d="M1102.65 488.36L1102.65 488.36" stroke="rgba(0, 0, 0, 1)" stroke-width="1.5"></path><path d="M1102.65 488.36L1268.42 508.2" stroke="rgba(0, 0, 0, 1)" stroke-width="1.5"></path><path d="M1102.65 488.36L1128.66 688.74" stroke="rgba(0, 0, 0, 1)" stroke-width="1.5"></path><path d="M1128.66 688.74L1128.66 688.74" stroke="rgba(0, 0, 0, 1)" stroke-width="1.5"></path><path d="M1128.66 688.74L1264.6 661.48" stroke="rgba(0, 0, 0, 1)" stroke-width="1.5"></path><path d="M1128.66 688.74L1268.42 508.2" stroke="rgba(0, 0, 0, 1)" stroke-width="1.5"></path><path d="M1128.66 688.74L1395.17 530.21" stroke="rgba(0, 0, 0, 1)" stroke-width="1.5"></path><path d="M1128.66 688.74L1010.29 394.61" stroke="rgba(0, 0, 0, 1)" stroke-width="1.5"></path><path d="M1299.62 -90.21L1299.62 -90.21" stroke="rgba(0, 0, 0, 1)" stroke-width="1.5"></path><path d="M1299.62 -90.21L1282.59 38.05" stroke="rgba(0, 0, 0, 1)" stroke-width="1.5"></path><path d="M1299.62 -90.21L1449.22 -62.12" stroke="rgba(0, 0, 0, 1)" stroke-width="1.5"></path><path d="M1299.62 -90.21L1425.22 53.17" stroke="rgba(0, 0, 0, 1)" stroke-width="1.5"></path><path d="M1282.59 38.05L1282.59 38.05" stroke="rgba(0, 0, 0, 1)" stroke-width="1.5"></path><path d="M1282.59 38.05L1425.22 53.17" stroke="rgba(0, 0, 0, 1)" stroke-width="1.5"></path><path d="M1282.59 38.05L1141 -79.75" stroke="rgba(0, 0, 0, 1)" stroke-width="1.5"></path><path d="M1282.59 38.05L1449.22 -62.12" stroke="rgba(0, 0, 0, 1)" stroke-width="1.5"></path><path d="M1237.81 237.49L1237.81 237.49" stroke="rgba(0, 0, 0, 1)" stroke-width="1.5"></path><path d="M1283.45 370.42L1283.45 370.42" stroke="rgba(0, 0, 0, 1)" stroke-width="1.5"></path><path d="M1283.45 370.42L1268.42 508.2" stroke="rgba(0, 0, 0, 1)" stroke-width="1.5"></path><path d="M1283.45 370.42L1237.81 237.49" stroke="rgba(0, 0, 0, 1)" stroke-width="1.5"></path><path d="M1283.45 370.42L1436.96 346.63" stroke="rgba(0, 0, 0, 1)" stroke-width="1.5"></path><path d="M1268.42 508.2L1268.42 508.2" stroke="rgba(0, 0, 0, 1)" stroke-width="1.5"></path><path d="M1268.42 508.2L1395.17 530.21" stroke="rgba(0, 0, 0, 1)" stroke-width="1.5"></path><path d="M1268.42 508.2L1264.6 661.48" stroke="rgba(0, 0, 0, 1)" stroke-width="1.5"></path><path d="M1264.6 661.48L1264.6 661.48" stroke="rgba(0, 0, 0, 1)" stroke-width="1.5"></path><path d="M1449.22 -62.12L1449.22 -62.12" stroke="rgba(0, 0, 0, 1)" stroke-width="1.5"></path><path d="M1449.22 -62.12L1425.22 53.17" stroke="rgba(0, 0, 0, 1)" stroke-width="1.5"></path><path d="M1425.22 53.17L1425.22 53.17" stroke="rgba(0, 0, 0, 1)" stroke-width="1.5"></path><path d="M1425.22 53.17L1578.21 88.42" stroke="rgba(0, 0, 0, 1)" stroke-width="1.5"></path><path d="M1425.22 53.17L1550.14 198.16" stroke="rgba(0, 0, 0, 1)" stroke-width="1.5"></path><path d="M1425.22 53.17L1397.91 242.63" stroke="rgba(0, 0, 0, 1)" stroke-width="1.5"></path><path d="M1397.91 242.63L1397.91 242.63" stroke="rgba(0, 0, 0, 1)" stroke-width="1.5"></path><path d="M1397.91 242.63L1436.96 346.63" stroke="rgba(0, 0, 0, 1)" stroke-width="1.5"></path><path d="M1397.91 242.63L1550.14 198.16" stroke="rgba(0, 0, 0, 1)" stroke-width="1.5"></path><path d="M1397.91 242.63L1237.81 237.49" stroke="rgba(0, 0, 0, 1)" stroke-width="1.5"></path><path d="M1397.91 242.63L1283.45 370.42" stroke="rgba(0, 0, 0, 1)" stroke-width="1.5"></path><path d="M1436.96 346.63L1436.96 346.63" stroke="rgba(0, 0, 0, 1)" stroke-width="1.5"></path><path d="M1436.96 346.63L1597.02 338.07" stroke="rgba(0, 0, 0, 1)" stroke-width="1.5"></path><path d="M1436.96 346.63L1550.14 198.16" stroke="rgba(0, 0, 0, 1)" stroke-width="1.5"></path><path d="M1395.17 530.21L1395.17 530.21" stroke="rgba(0, 0, 0, 1)" stroke-width="1.5"></path><path d="M1395.17 530.21L1540.18 527.34" stroke="rgba(0, 0, 0, 1)" stroke-width="1.5"></path><path d="M1608.45 -97.76L1608.45 -97.76" stroke="rgba(0, 0, 0, 1)" stroke-width="1.5"></path><path d="M1608.45 -97.76L1449.22 -62.12" stroke="rgba(0, 0, 0, 1)" stroke-width="1.5"></path><path d="M1608.45 -97.76L1578.21 88.42" stroke="rgba(0, 0, 0, 1)" stroke-width="1.5"></path><path d="M1608.45 -97.76L1425.22 53.17" stroke="rgba(0, 0, 0, 1)" stroke-width="1.5"></path><path d="M1608.45 -97.76L1550.14 198.16" stroke="rgba(0, 0, 0, 1)" stroke-width="1.5"></path><path d="M1608.45 -97.76L1299.62 -90.21" stroke="rgba(0, 0, 0, 1)" stroke-width="1.5"></path><path d="M1608.45 -97.76L1282.59 38.05" stroke="rgba(0, 0, 0, 1)" stroke-width="1.5"></path><path d="M1578.21 88.42L1578.21 88.42" stroke="rgba(0, 0, 0, 1)" stroke-width="1.5"></path><path d="M1578.21 88.42L1550.14 198.16" stroke="rgba(0, 0, 0, 1)" stroke-width="1.5"></path><path d="M1550.14 198.16L1550.14 198.16" stroke="rgba(0, 0, 0, 1)" stroke-width="1.5"></path><path d="M1550.14 198.16L1597.02 338.07" stroke="rgba(0, 0, 0, 1)" stroke-width="1.5"></path><path d="M1597.02 338.07L1597.02 338.07" stroke="rgba(0, 0, 0, 1)" stroke-width="1.5"></path><path d="M1597.02 338.07L1540.18 527.34" stroke="rgba(0, 0, 0, 1)" stroke-width="1.5"></path><path d="M1597.02 338.07L1397.91 242.63" stroke="rgba(0, 0, 0, 1)" stroke-width="1.5"></path><path d="M1597.02 338.07L1578.21 88.42" stroke="rgba(0, 0, 0, 1)" stroke-width="1.5"></path><path d="M1597.02 338.07L1395.17 530.21" stroke="rgba(0, 0, 0, 1)" stroke-width="1.5"></path><path d="M1540.18 527.34L1540.18 527.34" stroke="rgba(0, 0, 0, 1)" stroke-width="1.5"></path><path d="M1540.18 527.34L1436.96 346.63" stroke="rgba(0, 0, 0, 1)" stroke-width="1.5"></path><circle r="5" cx="-58.95" cy="344.08" fill="rgba(0, 0, 0, 1)"></circle><circle r="5" cx="-99.78" cy="699.63" fill="rgba(0, 0, 0, 1)"></circle><circle r="5" cx="68.81" cy="374.59" fill="rgba(0, 0, 0, 1)"></circle><circle r="5" cx="41.1" cy="560.26" fill="rgba(0, 0, 0, 1)"></circle><circle r="5" cx="84.09" cy="709.54" fill="rgba(0, 0, 0, 1)"></circle><circle r="5" cx="252.55" cy="352.55" fill="rgba(0, 0, 0, 1)"></circle><circle r="5" cx="226.55" cy="529.51" fill="rgba(0, 0, 0, 1)"></circle><circle r="5" cx="257.15" cy="643.11" fill="rgba(0, 0, 0, 1)"></circle><circle r="5" cx="394.66" cy="342.81" fill="rgba(0, 0, 0, 1)"></circle><circle r="5" cx="337.83" cy="545.77" fill="rgba(0, 0, 0, 1)"></circle><circle r="5" cx="390.19" cy="664.59" fill="rgba(0, 0, 0, 1)"></circle><circle r="5" cx="537.49" cy="410.97" fill="rgba(0, 0, 0, 1)"></circle><circle r="5" cx="560.47" cy="509.39" fill="rgba(0, 0, 0, 1)"></circle><circle r="5" cx="515.5" cy="664.98" fill="rgba(0, 0, 0, 1)"></circle><circle r="5" cx="689.24" cy="369.79" fill="rgba(0, 0, 0, 1)"></circle><circle r="5" cx="825.42" cy="112.44" fill="rgba(0, 0, 0, 1)"></circle><circle r="5" cx="848.57" cy="232.27" fill="rgba(0, 0, 0, 1)"></circle><circle r="5" cx="795.1" cy="384.87" fill="rgba(0, 0, 0, 1)"></circle><circle r="5" cx="799.62" cy="517.54" fill="rgba(0, 0, 0, 1)"></circle><circle r="5" cx="798.09" cy="707.46" fill="rgba(0, 0, 0, 1)"></circle><circle r="5" cx="997.77" cy="-81.3" fill="rgba(0, 0, 0, 1)"></circle><circle r="5" cx="985.93" cy="42.14" fill="rgba(0, 0, 0, 1)"></circle><circle r="5" cx="967.91" cy="228.27" fill="rgba(0, 0, 0, 1)"></circle><circle r="5" cx="1010.29" cy="394.61" fill="rgba(0, 0, 0, 1)"></circle><circle r="5" cx="983.61" cy="710.2" fill="rgba(0, 0, 0, 1)"></circle><circle r="5" cx="1141" cy="-79.75" fill="rgba(0, 0, 0, 1)"></circle><circle r="5" cx="1123.05" cy="47.49" fill="rgba(0, 0, 0, 1)"></circle><circle r="5" cx="1148.01" cy="247.29" fill="rgba(0, 0, 0, 1)"></circle><circle r="5" cx="1116.63" cy="355.94" fill="rgba(0, 0, 0, 1)"></circle><circle r="5" cx="1102.65" cy="488.36" fill="rgba(0, 0, 0, 1)"></circle><circle r="5" cx="1128.66" cy="688.74" fill="rgba(0, 0, 0, 1)"></circle><circle r="5" cx="1299.62" cy="-90.21" fill="rgba(0, 0, 0, 1)"></circle><circle r="5" cx="1282.59" cy="38.05" fill="rgba(0, 0, 0, 1)"></circle><circle r="5" cx="1237.81" cy="237.49" fill="rgba(0, 0, 0, 1)"></circle><circle r="5" cx="1283.45" cy="370.42" fill="rgba(0, 0, 0, 1)"></circle><circle r="5" cx="1268.42" cy="508.2" fill="rgba(0, 0, 0, 1)"></circle><circle r="5" cx="1264.6" cy="661.48" fill="rgba(0, 0, 0, 1)"></circle><circle r="5" cx="1449.22" cy="-62.12" fill="rgba(0, 0, 0, 1)"></circle><circle r="5" cx="1425.22" cy="53.17" fill="rgba(0, 0, 0, 1)"></circle><circle r="5" cx="1397.91" cy="242.63" fill="rgba(0, 0, 0, 1)"></circle><circle r="5" cx="1436.96" cy="346.63" fill="rgba(0, 0, 0, 1)"></circle><circle r="5" cx="1395.17" cy="530.21" fill="rgba(0, 0, 0, 1)"></circle><circle r="5" cx="1608.45" cy="-97.76" fill="rgba(0, 0, 0, 1)"></circle><circle r="5" cx="1578.21" cy="88.42" fill="rgba(0, 0, 0, 1)"></circle><circle r="5" cx="1550.14" cy="198.16" fill="rgba(0, 0, 0, 1)"></circle><circle r="5" cx="1597.02" cy="338.07" fill="rgba(0, 0, 0, 1)"></circle><circle r="5" cx="1540.18" cy="527.34" fill="rgba(0, 0, 0, 1)"></circle><path d="M39.43 516L39.43 516" stroke="hsl(0, 78.7%, 43.1%)" stroke-width="1.5"></path><path d="M39.43 516L-57.34 547.29" stroke="hsl(0, 78.7%, 43.1%)" stroke-width="1.5"></path><path d="M39.43 516L56.53 673.38" stroke="hsl(0, 78.7%, 43.1%)" stroke-width="1.5"></path><path d="M39.43 516L248.14 500.34" stroke="hsl(0, 78.7%, 43.1%)" stroke-width="1.5"></path><path d="M1106.53 372.96L1106.53 372.96" stroke="hsl(0, 78.7%, 43.1%)" stroke-width="1.5"></path><path d="M1106.53 372.96L1129.87 515.98" stroke="hsl(0, 78.7%, 43.1%)" stroke-width="1.5"></path><path d="M1106.53 372.96L962.62 341.26" stroke="hsl(0, 78.7%, 43.1%)" stroke-width="1.5"></path><path d="M1106.53 372.96L1103.68 212.41" stroke="hsl(0, 78.7%, 43.1%)" stroke-width="1.5"></path><path d="M1129.87 515.98L1129.87 515.98" stroke="hsl(0, 78.7%, 43.1%)" stroke-width="1.5"></path><path d="M1129.87 515.98L1004.42 510.93" stroke="hsl(0, 78.7%, 43.1%)" stroke-width="1.5"></path><path d="M1129.87 515.98L1264.28 522.69" stroke="hsl(0, 78.7%, 43.1%)" stroke-width="1.5"></path><path d="M-57.34 547.29L-57.34 547.29" stroke="hsl(0, 78.7%, 43.1%)" stroke-width="1.5"></path><path d="M-57.34 547.29L56.53 673.38" stroke="hsl(0, 78.7%, 43.1%)" stroke-width="1.5"></path><path d="M-57.34 547.29L-103.23 712.18" stroke="hsl(0, 78.7%, 43.1%)" stroke-width="1.5"></path><path d="M-103.23 712.18L-103.23 712.18" stroke="hsl(0, 78.7%, 43.1%)" stroke-width="1.5"></path><path d="M-103.23 712.18L56.53 673.38" stroke="hsl(0, 78.7%, 43.1%)" stroke-width="1.5"></path><path d="M56.53 673.38L56.53 673.38" stroke="hsl(0, 78.7%, 43.1%)" stroke-width="1.5"></path><path d="M56.53 673.38L243.66 708.8" stroke="hsl(0, 78.7%, 43.1%)" stroke-width="1.5"></path><path d="M56.53 673.38L248.14 500.34" stroke="hsl(0, 78.7%, 43.1%)" stroke-width="1.5"></path><path d="M56.53 673.38L377.01 708.96" stroke="hsl(0, 78.7%, 43.1%)" stroke-width="1.5"></path><path d="M248.14 500.34L248.14 500.34" stroke="hsl(0, 78.7%, 43.1%)" stroke-width="1.5"></path><path d="M248.14 500.34L368.47 537.06" stroke="hsl(0, 78.7%, 43.1%)" stroke-width="1.5"></path><path d="M248.14 500.34L243.66 708.8" stroke="hsl(0, 78.7%, 43.1%)" stroke-width="1.5"></path><path d="M248.14 500.34L377.01 708.96" stroke="hsl(0, 78.7%, 43.1%)" stroke-width="1.5"></path><path d="M248.14 500.34L529.98 519.39" stroke="hsl(0, 78.7%, 43.1%)" stroke-width="1.5"></path><path d="M243.66 708.8L243.66 708.8" stroke="hsl(0, 78.7%, 43.1%)" stroke-width="1.5"></path><path d="M243.66 708.8L377.01 708.96" stroke="hsl(0, 78.7%, 43.1%)" stroke-width="1.5"></path><path d="M243.66 708.8L368.47 537.06" stroke="hsl(0, 78.7%, 43.1%)" stroke-width="1.5"></path><path d="M243.66 708.8L504.99 652.14" stroke="hsl(0, 78.7%, 43.1%)" stroke-width="1.5"></path><path d="M368.47 537.06L368.47 537.06" stroke="hsl(0, 78.7%, 43.1%)" stroke-width="1.5"></path><path d="M368.47 537.06L529.98 519.39" stroke="hsl(0, 78.7%, 43.1%)" stroke-width="1.5"></path><path d="M377.01 708.96L377.01 708.96" stroke="hsl(0, 78.7%, 43.1%)" stroke-width="1.5"></path><path d="M377.01 708.96L504.99 652.14" stroke="hsl(0, 78.7%, 43.1%)" stroke-width="1.5"></path><path d="M377.01 708.96L368.47 537.06" stroke="hsl(0, 78.7%, 43.1%)" stroke-width="1.5"></path><path d="M377.01 708.96L529.98 519.39" stroke="hsl(0, 78.7%, 43.1%)" stroke-width="1.5"></path><path d="M529.98 519.39L529.98 519.39" stroke="hsl(0, 78.7%, 43.1%)" stroke-width="1.5"></path><path d="M529.98 519.39L504.99 652.14" stroke="hsl(0, 78.7%, 43.1%)" stroke-width="1.5"></path><path d="M529.98 519.39L684.82 514.18" stroke="hsl(0, 78.7%, 43.1%)" stroke-width="1.5"></path><path d="M504.99 652.14L504.99 652.14" stroke="hsl(0, 78.7%, 43.1%)" stroke-width="1.5"></path><path d="M684.82 514.18L684.82 514.18" stroke="hsl(0, 78.7%, 43.1%)" stroke-width="1.5"></path><path d="M684.82 514.18L798.94 523.39" stroke="hsl(0, 78.7%, 43.1%)" stroke-width="1.5"></path><path d="M684.82 514.18L704.03 645.28" stroke="hsl(0, 78.7%, 43.1%)" stroke-width="1.5"></path><path d="M684.82 514.18L802.22 353.43" stroke="hsl(0, 78.7%, 43.1%)" stroke-width="1.5"></path><path d="M684.82 514.18L854.26 655.17" stroke="hsl(0, 78.7%, 43.1%)" stroke-width="1.5"></path><path d="M704.03 645.28L704.03 645.28" stroke="hsl(0, 78.7%, 43.1%)" stroke-width="1.5"></path><path d="M704.03 645.28L854.26 655.17" stroke="hsl(0, 78.7%, 43.1%)" stroke-width="1.5"></path><path d="M704.03 645.28L798.94 523.39" stroke="hsl(0, 78.7%, 43.1%)" stroke-width="1.5"></path><path d="M704.03 645.28L504.99 652.14" stroke="hsl(0, 78.7%, 43.1%)" stroke-width="1.5"></path><path d="M704.03 645.28L529.98 519.39" stroke="hsl(0, 78.7%, 43.1%)" stroke-width="1.5"></path><path d="M704.03 645.28L1005.28 667.8" stroke="hsl(0, 78.7%, 43.1%)" stroke-width="1.5"></path><path d="M802.22 353.43L802.22 353.43" stroke="hsl(0, 78.7%, 43.1%)" stroke-width="1.5"></path><path d="M802.22 353.43L962.62 341.26" stroke="hsl(0, 78.7%, 43.1%)" stroke-width="1.5"></path><path d="M802.22 353.43L798.94 523.39" stroke="hsl(0, 78.7%, 43.1%)" stroke-width="1.5"></path><path d="M798.94 523.39L798.94 523.39" stroke="hsl(0, 78.7%, 43.1%)" stroke-width="1.5"></path><path d="M798.94 523.39L854.26 655.17" stroke="hsl(0, 78.7%, 43.1%)" stroke-width="1.5"></path><path d="M854.26 655.17L854.26 655.17" stroke="hsl(0, 78.7%, 43.1%)" stroke-width="1.5"></path><path d="M854.26 655.17L1005.28 667.8" stroke="hsl(0, 78.7%, 43.1%)" stroke-width="1.5"></path><path d="M854.26 655.17L1004.42 510.93" stroke="hsl(0, 78.7%, 43.1%)" stroke-width="1.5"></path><path d="M962.62 341.26L962.62 341.26" stroke="hsl(0, 78.7%, 43.1%)" stroke-width="1.5"></path><path d="M1004.42 510.93L1004.42 510.93" stroke="hsl(0, 78.7%, 43.1%)" stroke-width="1.5"></path><path d="M1004.42 510.93L1005.28 667.8" stroke="hsl(0, 78.7%, 43.1%)" stroke-width="1.5"></path><path d="M1004.42 510.93L1106.53 372.96" stroke="hsl(0, 78.7%, 43.1%)" stroke-width="1.5"></path><path d="M1004.42 510.93L962.62 341.26" stroke="hsl(0, 78.7%, 43.1%)" stroke-width="1.5"></path><path d="M1004.42 510.93L798.94 523.39" stroke="hsl(0, 78.7%, 43.1%)" stroke-width="1.5"></path><path d="M1005.28 667.8L1005.28 667.8" stroke="hsl(0, 78.7%, 43.1%)" stroke-width="1.5"></path><path d="M1005.28 667.8L1121.72 702.1" stroke="hsl(0, 78.7%, 43.1%)" stroke-width="1.5"></path><path d="M1103.68 212.41L1103.68 212.41" stroke="hsl(0, 78.7%, 43.1%)" stroke-width="1.5"></path><path d="M1103.68 212.41L1246.07 262.25" stroke="hsl(0, 78.7%, 43.1%)" stroke-width="1.5"></path><path d="M1121.72 702.1L1121.72 702.1" stroke="hsl(0, 78.7%, 43.1%)" stroke-width="1.5"></path><path d="M1121.72 702.1L1296.97 684.76" stroke="hsl(0, 78.7%, 43.1%)" stroke-width="1.5"></path><path d="M1298.97 -56.48L1298.97 -56.48" stroke="hsl(0, 78.7%, 43.1%)" stroke-width="1.5"></path><path d="M1298.97 -56.48L1250.35 66.27" stroke="hsl(0, 78.7%, 43.1%)" stroke-width="1.5"></path><path d="M1298.97 -56.48L1445.79 -62.58" stroke="hsl(0, 78.7%, 43.1%)" stroke-width="1.5"></path><path d="M1298.97 -56.48L1428.49 74.25" stroke="hsl(0, 78.7%, 43.1%)" stroke-width="1.5"></path><path d="M1298.97 -56.48L1560.85 39.62" stroke="hsl(0, 78.7%, 43.1%)" stroke-width="1.5"></path><path d="M1298.97 -56.48L1451.43 211.68" stroke="hsl(0, 78.7%, 43.1%)" stroke-width="1.5"></path><path d="M1250.35 66.27L1250.35 66.27" stroke="hsl(0, 78.7%, 43.1%)" stroke-width="1.5"></path><path d="M1250.35 66.27L1428.49 74.25" stroke="hsl(0, 78.7%, 43.1%)" stroke-width="1.5"></path><path d="M1246.07 262.25L1246.07 262.25" stroke="hsl(0, 78.7%, 43.1%)" stroke-width="1.5"></path><path d="M1246.07 262.25L1281.68 367.47" stroke="hsl(0, 78.7%, 43.1%)" stroke-width="1.5"></path><path d="M1281.68 367.47L1281.68 367.47" stroke="hsl(0, 78.7%, 43.1%)" stroke-width="1.5"></path><path d="M1281.68 367.47L1264.28 522.69" stroke="hsl(0, 78.7%, 43.1%)" stroke-width="1.5"></path><path d="M1281.68 367.47L1447.92 352.98" stroke="hsl(0, 78.7%, 43.1%)" stroke-width="1.5"></path><path d="M1281.68 367.47L1106.53 372.96" stroke="hsl(0, 78.7%, 43.1%)" stroke-width="1.5"></path><path d="M1264.28 522.69L1264.28 522.69" stroke="hsl(0, 78.7%, 43.1%)" stroke-width="1.5"></path><path d="M1264.28 522.69L1296.97 684.76" stroke="hsl(0, 78.7%, 43.1%)" stroke-width="1.5"></path><path d="M1264.28 522.69L1461.89 525.53" stroke="hsl(0, 78.7%, 43.1%)" stroke-width="1.5"></path><path d="M1264.28 522.69L1423.29 656.77" stroke="hsl(0, 78.7%, 43.1%)" stroke-width="1.5"></path><path d="M1296.97 684.76L1296.97 684.76" stroke="hsl(0, 78.7%, 43.1%)" stroke-width="1.5"></path><path d="M1296.97 684.76L1423.29 656.77" stroke="hsl(0, 78.7%, 43.1%)" stroke-width="1.5"></path><path d="M1445.79 -62.58L1445.79 -62.58" stroke="hsl(0, 78.7%, 43.1%)" stroke-width="1.5"></path><path d="M1445.79 -62.58L1428.49 74.25" stroke="hsl(0, 78.7%, 43.1%)" stroke-width="1.5"></path><path d="M1445.79 -62.58L1560.85 39.62" stroke="hsl(0, 78.7%, 43.1%)" stroke-width="1.5"></path><path d="M1445.79 -62.58L1250.35 66.27" stroke="hsl(0, 78.7%, 43.1%)" stroke-width="1.5"></path><path d="M1445.79 -62.58L1451.43 211.68" stroke="hsl(0, 78.7%, 43.1%)" stroke-width="1.5"></path><path d="M1428.49 74.25L1428.49 74.25" stroke="hsl(0, 78.7%, 43.1%)" stroke-width="1.5"></path><path d="M1428.49 74.25L1560.85 39.62" stroke="hsl(0, 78.7%, 43.1%)" stroke-width="1.5"></path><path d="M1451.43 211.68L1451.43 211.68" stroke="hsl(0, 78.7%, 43.1%)" stroke-width="1.5"></path><path d="M1451.43 211.68L1584.8 197.36" stroke="hsl(0, 78.7%, 43.1%)" stroke-width="1.5"></path><path d="M1451.43 211.68L1428.49 74.25" stroke="hsl(0, 78.7%, 43.1%)" stroke-width="1.5"></path><path d="M1451.43 211.68L1447.92 352.98" stroke="hsl(0, 78.7%, 43.1%)" stroke-width="1.5"></path><path d="M1451.43 211.68L1560.85 39.62" stroke="hsl(0, 78.7%, 43.1%)" stroke-width="1.5"></path><path d="M1451.43 211.68L1588.62 368.67" stroke="hsl(0, 78.7%, 43.1%)" stroke-width="1.5"></path><path d="M1451.43 211.68L1246.07 262.25" stroke="hsl(0, 78.7%, 43.1%)" stroke-width="1.5"></path><path d="M1447.92 352.98L1447.92 352.98" stroke="hsl(0, 78.7%, 43.1%)" stroke-width="1.5"></path><path d="M1447.92 352.98L1588.62 368.67" stroke="hsl(0, 78.7%, 43.1%)" stroke-width="1.5"></path><path d="M1447.92 352.98L1461.89 525.53" stroke="hsl(0, 78.7%, 43.1%)" stroke-width="1.5"></path><path d="M1461.89 525.53L1461.89 525.53" stroke="hsl(0, 78.7%, 43.1%)" stroke-width="1.5"></path><path d="M1461.89 525.53L1564.21 547.07" stroke="hsl(0, 78.7%, 43.1%)" stroke-width="1.5"></path><path d="M1461.89 525.53L1423.29 656.77" stroke="hsl(0, 78.7%, 43.1%)" stroke-width="1.5"></path><path d="M1423.29 656.77L1423.29 656.77" stroke="hsl(0, 78.7%, 43.1%)" stroke-width="1.5"></path><path d="M1423.29 656.77L1574.66 688.34" stroke="hsl(0, 78.7%, 43.1%)" stroke-width="1.5"></path><path d="M1423.29 656.77L1564.21 547.07" stroke="hsl(0, 78.7%, 43.1%)" stroke-width="1.5"></path><path d="M1560.85 39.62L1560.85 39.62" stroke="hsl(0, 78.7%, 43.1%)" stroke-width="1.5"></path><path d="M1560.85 39.62L1584.8 197.36" stroke="hsl(0, 78.7%, 43.1%)" stroke-width="1.5"></path><path d="M1584.8 197.36L1584.8 197.36" stroke="hsl(0, 78.7%, 43.1%)" stroke-width="1.5"></path><path d="M1584.8 197.36L1588.62 368.67" stroke="hsl(0, 78.7%, 43.1%)" stroke-width="1.5"></path><path d="M1588.62 368.67L1588.62 368.67" stroke="hsl(0, 78.7%, 43.1%)" stroke-width="1.5"></path><path d="M1588.62 368.67L1564.21 547.07" stroke="hsl(0, 78.7%, 43.1%)" stroke-width="1.5"></path><path d="M1588.62 368.67L1461.89 525.53" stroke="hsl(0, 78.7%, 43.1%)" stroke-width="1.5"></path><path d="M1564.21 547.07L1564.21 547.07" stroke="hsl(0, 78.7%, 43.1%)" stroke-width="1.5"></path><path d="M1564.21 547.07L1574.66 688.34" stroke="hsl(0, 78.7%, 43.1%)" stroke-width="1.5"></path><path d="M1574.66 688.34L1574.66 688.34" stroke="hsl(0, 78.7%, 43.1%)" stroke-width="1.5"></path><path d="M1574.66 688.34L1461.89 525.53" stroke="hsl(0, 78.7%, 43.1%)" stroke-width="1.5"></path><circle r="25" cx="39.43" cy="516" fill="url(&quot;#SvgjsRadialGradient1021&quot;)"></circle><circle r="25" cx="1106.53" cy="372.96" fill="url(&quot;#SvgjsRadialGradient1021&quot;)"></circle><circle r="25" cx="1129.87" cy="515.98" fill="url(&quot;#SvgjsRadialGradient1021&quot;)"></circle><circle r="5" cx="-57.34" cy="547.29" fill="#cb8989"></circle><circle r="5" cx="-103.23" cy="712.18" fill="#cb8989"></circle><circle r="5" cx="56.53" cy="673.38" fill="#cb8989"></circle><circle r="5" cx="248.14" cy="500.34" fill="#cb8989"></circle><circle r="5" cx="243.66" cy="708.8" fill="#cb8989"></circle><circle r="5" cx="368.47" cy="537.06" fill="#cb8989"></circle><circle r="5" cx="377.01" cy="708.96" fill="#cb8989"></circle><circle r="5" cx="529.98" cy="519.39" fill="#cb8989"></circle><circle r="5" cx="504.99" cy="652.14" fill="#cb8989"></circle><circle r="5" cx="684.82" cy="514.18" fill="#cb8989"></circle><circle r="5" cx="704.03" cy="645.28" fill="#cb8989"></circle><circle r="5" cx="802.22" cy="353.43" fill="#cb8989"></circle><circle r="5" cx="798.94" cy="523.39" fill="#cb8989"></circle><circle r="5" cx="854.26" cy="655.17" fill="#cb8989"></circle><circle r="5" cx="962.62" cy="341.26" fill="#cb8989"></circle><circle r="5" cx="1004.42" cy="510.93" fill="#cb8989"></circle><circle r="5" cx="1005.28" cy="667.8" fill="#cb8989"></circle><circle r="5" cx="1103.68" cy="212.41" fill="#cb8989"></circle><circle r="5" cx="1121.72" cy="702.1" fill="#cb8989"></circle><circle r="5" cx="1298.97" cy="-56.48" fill="#cb8989"></circle><circle r="5" cx="1250.35" cy="66.27" fill="#cb8989"></circle><circle r="5" cx="1246.07" cy="262.25" fill="#cb8989"></circle><circle r="5" cx="1281.68" cy="367.47" fill="#cb8989"></circle><circle r="5" cx="1264.28" cy="522.69" fill="#cb8989"></circle><circle r="5" cx="1296.97" cy="684.76" fill="#cb8989"></circle><circle r="5" cx="1445.79" cy="-62.58" fill="#cb8989"></circle><circle r="5" cx="1428.49" cy="74.25" fill="#cb8989"></circle><circle r="5" cx="1451.43" cy="211.68" fill="#cb8989"></circle><circle r="5" cx="1447.92" cy="352.98" fill="#cb8989"></circle><circle r="5" cx="1461.89" cy="525.53" fill="#cb8989"></circle><circle r="5" cx="1423.29" cy="656.77" fill="#cb8989"></circle><circle r="5" cx="1560.85" cy="39.62" fill="#cb8989"></circle><circle r="5" cx="1584.8" cy="197.36" fill="#cb8989"></circle><circle r="5" cx="1588.62" cy="368.67" fill="#cb8989"></circle><circle r="5" cx="1564.21" cy="547.07" fill="#cb8989"></circle><circle r="5" cx="1574.66" cy="688.34" fill="#cb8989"></circle></g><defs><mask id="SvgjsMask1020"><rect width="1440" height="560" fill="#ffffff"></rect></mask><radialGradient id="SvgjsRadialGradient1021"><stop stop-color="#ffffff" offset="0.1"></stop><stop stop-color="rgba(151, 18, 18, 1)" offset="0.2"></stop><stop stop-color="rgba(151, 18, 18, 0)" offset="1"></stop></radialGradient></defs></svg>